<?xml version="1.0" encoding="UTF-8" standalone="no"?>
<!DOCTYPE svg PUBLIC "-//W3C//DTD SVG 20010904//EN"
              "http://www.w3.org/TR/2001/REC-SVG-20010904/DTD/svg10.dtd">

<svg xmlns="http://www.w3.org/2000/svg"
     width="3.31944in" height="2.93056in"
     viewBox="0 0 239 211">
  <path id="Selection #1"
        fill="none" stroke="black" stroke-width="1"
        d="M 238.00,211.00
           C 238.00,211.00 144.00,211.00 144.00,211.00
             144.00,211.00 112.00,211.00 112.00,211.00
             112.00,211.00 100.00,209.88 100.00,209.88
             100.00,209.88 91.00,209.88 91.00,209.88
             78.35,207.63 57.60,200.21 47.00,193.16
             43.22,190.64 35.50,183.97 32.08,180.71
             -6.48,144.03 -10.35,81.63 22.86,40.17
             32.36,28.31 47.07,16.26 61.00,10.10
             61.00,10.10 72.00,6.31 72.00,6.31
             80.94,3.23 95.55,0.08 105.00,0.08
             105.00,0.08 113.00,0.99 113.00,0.99
             143.51,4.05 165.06,15.74 185.64,38.42
             190.90,44.22 198.60,56.63 201.30,64.00
             202.18,66.40 204.55,72.15 202.94,74.40
             201.53,76.37 197.18,76.00 195.00,76.00
             195.00,76.00 158.00,76.00 158.00,76.00
             155.27,76.00 151.61,76.22 149.21,74.83
             146.02,72.98 145.69,69.63 138.00,63.92
             128.88,57.15 118.58,52.14 107.00,52.00
             83.44,51.73 64.94,64.49 55.72,86.00
             53.12,92.06 50.71,100.35 51.18,107.00
             52.58,126.56 63.75,143.67 81.00,152.97
             89.56,157.58 99.41,158.99 109.00,159.00
             109.00,159.00 208.00,159.00 208.00,159.00
             208.00,159.00 230.00,159.00 230.00,159.00
             231.82,159.01 234.92,158.85 236.40,160.02
             238.38,161.59 238.00,165.70 238.00,168.00
             238.00,168.00 238.00,211.00 238.00,211.00 Z
           M 157.00,92.00
           C 163.02,90.29 172.50,91.00 179.00,91.00
             179.00,91.00 219.00,91.00 219.00,91.00
             222.48,91.00 234.99,90.08 236.98,92.60
             238.23,94.19 238.00,98.01 238.00,100.00
             238.00,100.00 238.00,130.00 238.00,130.00
             238.00,132.54 238.44,139.55 236.98,141.40
             235.41,143.38 231.30,143.00 229.00,143.00
             229.00,143.00 174.00,143.00 174.00,143.00
             166.65,143.00 151.35,143.80 145.00,142.00
             145.00,142.00 153.69,127.00 153.69,127.00
             159.68,113.86 159.48,105.76 157.00,92.00 Z" />
</svg>
