<?xml version="1.0" encoding="UTF-8" standalone="no"?>
<!DOCTYPE svg PUBLIC "-//W3C//DTD SVG 20010904//EN"
              "http://www.w3.org/TR/2001/REC-SVG-20010904/DTD/svg10.dtd">

<svg xmlns="http://www.w3.org/2000/svg"
     width="3.125in" height="3.125in"
     viewBox="0 0 225 225">
  <path id="Selection"
        fill="none" stroke="black" stroke-width="1"
        d="M 39.72,29.02
           C 43.77,27.24 49.46,28.00 54.00,28.00
             54.00,28.00 81.00,28.00 81.00,28.00
             81.00,28.00 178.00,28.00 178.00,28.00
             180.19,28.00 184.51,27.63 186.01,29.60
             187.14,31.26 186.23,34.99 186.01,37.00
             186.01,37.00 184.58,56.00 184.58,56.00
             184.58,56.00 182.83,76.00 182.83,76.00
             182.83,76.00 176.28,147.00 176.28,147.00
             176.28,147.00 174.17,171.00 174.17,171.00
             173.86,174.11 174.38,177.76 171.57,179.86
             171.57,179.86 148.00,186.88 148.00,186.88
             139.99,189.00 117.77,196.36 111.00,195.90
             111.00,195.90 79.00,187.58 79.00,187.58
             79.00,187.58 60.00,182.29 60.00,182.29
             57.56,181.59 53.50,180.76 52.02,178.57
             50.77,176.73 51.00,172.37 50.72,170.00
             50.72,170.00 48.96,150.00 48.96,150.00
             48.96,150.00 46.17,121.00 46.17,121.00
             46.17,121.00 43.83,92.00 43.83,92.00
             43.83,92.00 39.72,47.00 39.72,47.00
             39.40,42.49 37.28,32.60 39.72,29.02 Z
           M 119.00,96.00
           C 125.53,90.79 137.97,86.41 146.00,83.00
             148.98,81.73 156.33,79.14 158.19,76.61
             159.21,74.72 161.41,61.40 158.19,59.02
             156.81,57.77 152.99,58.00 151.00,58.00
             151.00,58.00 85.00,58.00 85.00,58.00
             69.85,58.00 63.46,55.79 64.17,65.00
             64.75,72.45 64.10,77.83 73.00,78.00
             73.00,78.00 108.00,78.00 108.00,78.00
             103.39,82.56 86.78,88.46 80.00,91.20
             77.90,92.05 70.94,94.78 69.57,96.07
             66.81,98.67 67.53,112.65 70.58,114.98
             72.23,116.24 75.96,116.00 78.00,116.00
             78.00,116.00 126.00,116.00 126.00,116.00
             132.38,116.04 135.40,116.59 134.83,124.00
             134.65,126.29 133.80,136.41 132.98,137.78
             130.71,141.55 114.33,145.65 110.00,145.02
             106.31,144.48 95.80,142.02 93.31,139.57
             89.43,135.75 92.16,130.59 89.98,127.31
             87.47,123.55 73.96,124.88 70.00,126.00
             70.00,126.00 71.96,145.00 71.96,145.00
             72.11,148.04 71.77,152.00 73.85,154.49
             76.02,157.08 85.45,159.12 89.00,160.14
             96.03,162.15 106.99,166.34 114.00,165.91
             118.48,165.63 129.13,162.25 134.00,160.86
             137.94,159.73 149.68,157.15 151.44,153.73
             152.94,150.82 152.86,144.30 153.09,141.00
             153.09,141.00 154.83,124.00 154.83,124.00
             154.83,124.00 155.42,115.00 155.42,115.00
             155.73,112.67 157.00,100.79 156.36,99.31
             155.13,96.47 150.56,97.01 148.00,97.00
             148.00,97.00 132.00,97.00 132.00,97.00
             132.00,97.00 119.00,96.00 119.00,96.00 Z" />
</svg>
