<?xml version="1.0" encoding="UTF-8" standalone="no"?>
<!DOCTYPE svg PUBLIC "-//W3C//DTD SVG 20010904//EN"
              "http://www.w3.org/TR/2001/REC-SVG-20010904/DTD/svg10.dtd">

<svg xmlns="http://www.w3.org/2000/svg"
     width="7.11111in" height="7.11111in"
     viewBox="0 0 512 512">
  <path id="Selection"
        fill="none" stroke="black" stroke-width="1"
        d="M 58.60,55.02
           C 63.23,53.05 79.99,54.00 86.00,54.00
             86.00,54.00 148.00,54.00 148.00,54.00
             148.00,54.00 365.00,54.00 365.00,54.00
             365.00,54.00 433.00,54.00 433.00,54.00
             433.00,54.00 448.00,54.00 448.00,54.00
             449.95,54.04 452.63,53.90 453.98,55.60
             455.23,57.19 455.00,61.01 455.00,63.00
             455.00,63.00 455.00,361.00 455.00,361.00
             455.00,361.00 455.00,430.00 455.00,430.00
             455.00,430.00 455.00,445.00 455.00,445.00
             454.96,446.95 455.10,449.63 453.40,450.98
             451.81,452.23 447.99,452.00 446.00,452.00
             446.00,452.00 148.00,452.00 148.00,452.00
             148.00,452.00 79.00,452.00 79.00,452.00
             79.00,452.00 64.00,452.00 64.00,452.00
             62.05,451.96 59.37,452.10 58.02,450.40
             56.77,448.81 57.00,444.99 57.00,443.00
             57.00,443.00 57.00,158.00 57.00,158.00
             57.00,158.00 57.00,83.00 57.00,83.00
             57.00,83.00 57.00,63.00 57.00,63.00
             57.01,59.50 56.51,57.93 58.60,55.02 Z
           M 351.00,234.36
           C 337.78,236.68 326.72,239.83 317.09,250.02
             305.33,262.45 304.82,274.13 305.00,290.00
             305.16,303.47 312.04,316.02 322.00,324.82
             331.96,333.62 346.83,339.63 359.00,344.87
             366.41,348.06 376.60,352.73 381.72,359.01
             384.06,361.89 384.87,364.33 384.95,368.00
             385.20,381.07 370.08,386.90 359.00,386.24
             350.09,385.71 342.54,383.14 336.00,376.96
             332.87,374.00 326.20,364.83 322.00,365.28
             319.78,365.52 303.30,375.40 300.02,377.31
             297.79,378.60 294.95,380.23 294.70,383.09
             294.26,388.26 304.43,398.56 308.00,401.96
             320.42,413.80 333.70,417.33 350.00,419.84
             354.27,420.49 354.11,420.93 359.00,421.00
             374.97,421.21 394.57,417.45 407.00,406.79
             416.01,399.07 419.51,392.23 422.17,381.00
             423.34,376.07 423.90,376.61 424.00,371.00
             424.31,352.07 419.99,338.86 405.00,326.32
             391.53,315.05 374.49,309.89 359.00,302.24
             351.95,298.76 343.74,293.65 342.94,285.00
             342.03,275.19 349.57,268.39 359.00,268.04
             365.57,267.80 370.15,269.69 375.00,274.10
             378.02,276.86 381.64,282.87 386.01,281.86
             386.01,281.86 406.00,269.68 406.00,269.68
             408.10,268.32 411.24,266.71 411.41,263.90
             411.75,258.33 401.24,248.04 397.00,245.04
             388.71,239.17 377.23,234.60 367.00,234.36
             367.00,234.36 359.00,234.36 359.00,234.36
             359.00,234.36 351.00,234.36 351.00,234.36 Z
           M 238.31,236.60
           C 235.71,238.79 236.07,239.62 236.02,243.00
             236.02,243.00 236.02,268.00 236.02,268.00
             236.02,268.00 236.02,358.00 236.02,358.00
             236.02,358.00 236.02,368.00 236.02,368.00
             234.40,378.92 226.39,386.93 215.00,385.82
             208.31,385.17 203.83,382.13 199.67,376.99
             198.06,375.00 194.77,369.39 192.62,368.68
             189.36,367.59 181.91,372.86 179.00,374.60
             175.68,376.59 163.84,382.84 162.95,386.21
             162.03,389.70 167.17,396.41 169.32,399.00
             173.39,403.88 179.47,409.51 185.00,412.66
             193.96,417.77 197.42,417.76 207.00,419.20
             207.00,419.20 215.00,420.90 215.00,420.90
             228.98,422.19 248.78,416.73 258.96,406.91
             270.48,395.79 273.98,380.43 274.00,365.00
             274.00,365.00 274.00,266.00 274.00,266.00
             274.00,266.00 274.00,244.00 274.00,244.00
             273.99,242.18 274.15,239.08 272.98,237.60
             271.41,235.62 267.30,236.00 265.00,236.00
             258.98,235.99 243.23,235.41 238.31,236.60 Z" />
</svg>
