<?xml version="1.0" encoding="UTF-8" standalone="no"?>
<!DOCTYPE svg PUBLIC "-//W3C//DTD SVG 20010904//EN"
              "http://www.w3.org/TR/2001/REC-SVG-20010904/DTD/svg10.dtd">

<svg xmlns="http://www.w3.org/2000/svg"
     width="12.5in" height="11.1111in"
     viewBox="0 0 900 800">
  <path id="Selection #1"
        fill="none" stroke="black" stroke-width="1"
        d="M 277.00,676.00
           C 270.63,675.71 267.05,674.70 261.00,673.23
             235.22,666.98 212.38,652.09 195.13,632.00
             189.36,625.27 185.20,618.38 180.46,611.00
             180.46,611.00 168.36,591.00 168.36,591.00
             145.77,546.94 132.52,487.40 132.00,438.00
             132.00,438.00 131.00,419.00 131.00,419.00
             131.00,419.00 132.00,402.00 132.00,402.00
             132.00,402.00 135.28,354.00 135.28,354.00
             135.28,354.00 137.95,335.00 137.95,335.00
             137.95,335.00 140.75,319.00 140.75,319.00
             141.21,316.67 141.42,313.94 144.23,313.39
             147.18,312.80 152.31,315.48 155.00,316.70
             155.00,316.70 176.00,326.14 176.00,326.14
             176.00,326.14 206.00,339.32 206.00,339.32
             206.00,339.32 215.00,344.80 215.00,344.80
             215.00,344.80 225.00,349.31 225.00,349.31
             225.00,349.31 238.00,355.74 238.00,355.74
             238.00,355.74 265.00,368.46 265.00,368.46
             265.00,368.46 293.00,385.00 293.00,385.00
             295.18,386.44 301.20,391.16 303.70,390.47
             306.27,389.77 307.55,382.47 308.43,380.00
             308.43,380.00 319.45,348.00 319.45,348.00
             331.35,317.90 335.16,310.30 350.70,282.00
             350.70,282.00 363.69,259.00 363.69,259.00
             363.69,259.00 374.41,244.00 374.41,244.00
             374.41,244.00 381.48,233.00 381.48,233.00
             381.48,233.00 410.00,201.09 410.00,201.09
             410.00,201.09 430.00,183.90 430.00,183.90
             430.00,183.90 438.17,175.67 438.17,175.67
             438.17,175.67 445.96,169.69 445.96,169.69
             445.96,169.69 494.00,131.62 494.00,131.62
             494.00,131.62 519.00,114.41 519.00,114.41
             519.00,114.41 531.00,105.04 531.00,105.04
             531.00,105.04 550.00,93.46 550.00,93.46
             550.00,93.46 570.00,79.69 570.00,79.69
             570.00,79.69 596.00,64.08 596.00,64.08
             596.00,64.08 613.00,52.34 613.00,52.34
             613.00,52.34 644.00,32.67 644.00,32.67
             644.00,32.67 664.00,19.00 664.00,19.00
             676.24,55.73 688.17,92.29 697.12,130.00
             705.03,163.36 711.76,200.92 715.17,235.00
             715.17,235.00 718.09,266.00 718.09,266.00
             718.09,266.00 719.00,277.00 719.00,277.00
             719.00,277.00 720.00,295.00 720.00,295.00
             720.00,295.00 720.00,334.00 720.00,334.00
             720.00,334.00 719.00,353.00 719.00,353.00
             719.00,353.00 712.58,411.00 712.58,411.00
             710.26,426.62 707.86,442.78 703.57,458.00
             703.57,458.00 695.72,483.00 695.72,483.00
             695.72,483.00 681.99,524.00 681.99,524.00
             681.99,524.00 669.75,550.00 669.75,550.00
             668.24,553.04 665.24,557.32 668.36,560.30
             671.57,563.37 677.89,563.04 682.00,563.40
             682.00,563.40 693.00,564.96 693.00,564.96
             693.00,564.96 697.96,566.40 697.96,566.40
             697.96,566.40 708.00,566.40 708.00,566.40
             708.00,566.40 717.00,566.40 717.00,566.40
             717.00,566.40 726.00,564.56 726.00,564.56
             732.37,563.47 737.83,563.28 744.00,560.94
             765.72,552.67 793.22,527.18 811.00,511.87
             818.23,505.64 835.54,489.49 843.00,486.00
             842.88,495.60 838.73,496.02 831.59,501.67
             831.59,501.67 797.00,528.21 797.00,528.21
             789.86,533.75 771.26,546.08 767.18,552.72
             763.25,559.10 771.09,564.41 766.64,568.07
             763.26,570.85 745.91,571.89 741.00,572.01
             741.00,572.01 729.00,573.73 729.00,573.73
             729.00,573.73 716.00,573.73 716.00,573.73
             705.09,573.91 708.41,571.07 687.00,572.68
             683.06,572.97 677.16,571.57 673.00,571.17
             667.07,570.60 664.71,572.39 660.00,568.00
             657.54,573.82 655.78,573.93 652.44,579.00
             644.68,590.78 638.27,599.24 628.28,609.28
             619.91,617.70 611.53,625.79 602.00,632.96
             602.00,632.96 592.00,638.96 592.00,638.96
             592.00,638.96 582.00,646.12 582.00,646.12
             570.80,652.66 543.82,663.18 531.00,666.37
             531.00,666.37 507.00,670.30 507.00,670.30
             502.31,670.99 500.26,672.23 495.00,671.91
             495.00,671.91 486.00,670.30 486.00,670.30
             467.35,667.61 472.86,669.40 455.00,662.09
             449.17,659.70 447.74,659.71 442.17,655.85
             442.17,655.85 419.00,639.41 419.00,639.41
             415.96,637.07 413.07,633.17 409.00,633.33
             404.67,633.50 385.88,640.09 381.00,642.00
             381.00,642.00 334.00,661.98 334.00,661.98
             314.57,672.09 295.27,682.89 277.00,695.00
             247.23,714.74 219.40,736.09 187.00,751.74
             187.00,751.74 167.00,759.13 167.00,759.13
             153.24,764.63 151.60,771.60 143.00,776.47
             136.69,780.04 127.11,780.08 120.00,780.00
             106.92,779.84 84.46,775.27 71.00,772.74
             68.43,772.26 57.14,770.81 56.02,769.40
             54.82,767.88 54.94,763.91 55.02,762.00
             55.12,759.49 55.20,757.03 58.15,756.36
             60.81,755.74 64.62,757.72 69.00,757.96
             73.76,758.21 75.69,757.53 79.99,757.19
             79.99,757.19 89.59,757.19 89.59,757.19
             89.59,757.19 100.00,757.70 100.00,757.70
             100.00,757.70 106.00,756.28 106.00,756.28
             106.00,756.28 113.00,756.28 113.00,756.28
             124.58,754.71 136.21,750.64 146.00,744.30
             154.51,738.79 158.47,732.04 165.00,728.00
             166.50,729.73 167.59,731.26 170.02,731.77
             174.19,732.65 188.46,724.47 193.00,722.37
             193.00,722.37 228.00,705.21 228.00,705.21
             228.00,705.21 236.00,700.40 236.00,700.40
             236.00,700.40 254.00,691.30 254.00,691.30
             260.15,687.93 273.77,681.76 277.00,676.00 Z
           M 605.00,164.00
           C 597.98,170.19 592.09,188.07 588.14,197.00
             588.14,197.00 570.31,235.00 570.31,235.00
             570.31,235.00 566.97,244.00 566.97,244.00
             566.97,244.00 557.74,262.00 557.74,262.00
             557.74,262.00 542.31,295.00 542.31,295.00
             542.31,295.00 538.18,306.00 538.18,306.00
             538.18,306.00 529.65,320.00 529.65,320.00
             529.65,320.00 526.94,328.00 526.94,328.00
             526.94,328.00 523.35,335.00 523.35,335.00
             523.35,335.00 520.13,344.00 520.13,344.00
             520.13,344.00 515.12,354.00 515.12,354.00
             515.12,354.00 508.68,369.00 508.68,369.00
             508.68,369.00 498.31,390.00 498.31,390.00
             498.31,390.00 489.73,409.00 489.73,409.00
             489.73,409.00 476.31,435.00 476.31,435.00
             472.89,442.62 473.47,445.38 471.88,449.00
             471.88,449.00 463.89,464.00 463.89,464.00
             463.89,464.00 456.14,482.00 456.14,482.00
             456.14,482.00 439.74,517.00 439.74,517.00
             439.74,517.00 422.79,552.00 422.79,552.00
             422.79,552.00 419.88,560.00 419.88,560.00
             419.88,560.00 415.21,568.00 415.21,568.00
             415.21,568.00 412.71,575.00 412.71,575.00
             412.71,575.00 408.56,582.00 408.56,582.00
             408.56,582.00 405.66,590.00 405.66,590.00
             405.66,590.00 396.68,609.00 396.68,609.00
             395.98,610.87 394.28,614.83 394.81,616.73
             395.37,618.77 398.38,620.12 400.00,621.41
             400.00,621.41 409.00,630.00 409.00,630.00
             409.00,630.00 415.01,615.00 415.01,615.00
             415.01,615.00 428.29,583.00 428.29,583.00
             428.29,583.00 438.14,561.00 438.14,561.00
             438.14,561.00 445.31,543.00 445.31,543.00
             445.31,543.00 454.57,524.00 454.57,524.00
             454.57,524.00 459.45,511.00 459.45,511.00
             459.45,511.00 470.19,486.00 470.19,486.00
             470.19,486.00 474.98,472.09 474.98,472.09
             474.98,472.09 479.10,464.96 479.10,464.96
             479.10,464.96 488.58,443.00 488.58,443.00
             488.58,443.00 503.59,407.00 503.59,407.00
             503.59,407.00 521.55,365.00 521.55,365.00
             521.55,365.00 526.45,351.00 526.45,351.00
             529.05,344.67 531.15,343.57 533.21,339.00
             533.21,339.00 539.01,324.00 539.01,324.00
             539.01,324.00 552.86,291.00 552.86,291.00
             552.86,291.00 559.57,276.00 559.57,276.00
             559.57,276.00 591.01,201.00 591.01,201.00
             591.01,201.00 599.27,181.00 599.27,181.00
             602.49,174.46 605.74,171.82 605.00,164.00 Z" />
</svg>
