<?xml version="1.0" encoding="UTF-8" standalone="no"?>
<!DOCTYPE svg PUBLIC "-//W3C//DTD SVG 20010904//EN"
              "http://www.w3.org/TR/2001/REC-SVG-20010904/DTD/svg10.dtd">

<svg xmlns="http://www.w3.org/2000/svg"
     width="35.5556in" height="21.75in"
     viewBox="0 0 2560 1566">
  <path id="Selection #1"
        fill="none" stroke="black" stroke-width="1"
        d="M 1714.00,1.02
           C 1725.13,-2.71 1731.77,2.75 1741.00,8.00
             1741.00,8.00 1762.00,19.72 1762.00,19.72
             1762.00,19.72 1855.00,71.70 1855.00,71.70
             1866.35,77.93 1882.40,84.46 1887.52,97.00
             1889.59,102.07 1889.99,107.59 1890.00,113.00
             1890.00,113.00 1890.00,811.00 1890.00,811.00
             1889.96,835.75 1873.72,841.46 1855.00,852.15
             1855.00,852.15 1754.00,910.42 1754.00,910.42
             1754.00,910.42 1659.00,965.40 1659.00,965.40
             1659.00,965.40 1627.00,983.52 1627.00,983.52
             1623.15,985.06 1617.15,986.15 1613.00,985.91
             1601.56,985.24 1587.08,975.01 1577.00,969.28
             1577.00,969.28 1506.00,928.28 1506.00,928.28
             1506.00,928.28 1381.00,856.15 1381.00,856.15
             1381.00,856.15 1350.01,837.67 1350.01,837.67
             1346.85,835.00 1344.23,831.71 1342.38,828.00
             1339.59,822.42 1339.01,815.16 1339.00,809.00
             1339.00,809.00 1339.00,537.00 1339.00,537.00
             1339.01,529.85 1339.71,522.25 1343.48,516.00
             1348.16,508.24 1354.52,505.04 1362.00,500.60
             1362.00,500.60 1392.00,483.28 1392.00,483.28
             1392.00,483.28 1550.00,392.15 1550.00,392.15
             1550.00,392.15 1586.00,371.40 1586.00,371.40
             1595.82,365.58 1604.04,359.56 1616.00,360.04
             1625.83,360.44 1632.78,365.46 1641.00,370.15
             1641.00,370.15 1681.00,393.15 1681.00,393.15
             1687.00,396.57 1695.25,403.32 1701.79,397.58
             1703.75,395.86 1705.03,393.52 1705.90,391.00
             1706.07,389.00 1706.00,386.09 1705.90,384.00
             1705.90,384.00 1705.90,97.00 1705.90,97.00
             1705.90,97.00 1705.90,29.00 1705.90,29.00
             1706.00,17.96 1703.56,8.15 1714.00,1.02 Z
           M 268.00,353.47
           C 286.34,350.90 296.74,360.44 312.00,369.15
             312.00,369.15 395.00,416.99 395.00,416.99
             395.00,416.99 511.00,483.72 511.00,483.72
             522.48,490.26 540.68,498.12 546.62,510.00
             549.44,515.62 549.99,521.82 550.00,528.00
             550.00,528.00 550.00,639.00 550.00,639.00
             550.00,639.00 550.00,677.00 550.00,677.00
             550.00,677.00 549.34,688.00 549.34,688.00
             549.34,688.00 549.91,697.00 549.91,697.00
             549.91,697.00 549.00,709.00 549.00,709.00
             549.00,709.00 549.00,900.00 549.00,900.00
             549.00,902.59 549.11,905.51 548.35,908.00
             545.66,916.91 536.43,920.69 528.00,917.39
             528.00,917.39 482.00,891.42 482.00,891.42
             482.00,891.42 402.00,845.72 402.00,845.72
             384.48,835.76 366.04,829.32 366.00,806.00
             366.00,806.00 366.00,636.00 366.00,636.00
             365.99,628.29 364.97,620.46 360.36,614.00
             355.08,606.60 345.80,601.72 338.00,597.28
             338.00,597.28 305.00,578.28 305.00,578.28
             295.95,573.13 283.60,564.37 273.00,565.10
             265.83,565.59 259.08,569.82 253.00,573.28
             253.00,573.28 223.00,590.58 223.00,590.58
             210.64,597.75 190.69,606.12 185.56,620.00
             183.99,624.24 184.01,627.59 184.00,632.00
             184.00,632.00 184.00,800.00 184.00,800.00
             183.99,805.19 183.38,813.19 181.53,818.00
             176.13,832.05 159.43,838.76 147.00,845.85
             147.00,845.85 64.00,893.42 64.00,893.42
             64.00,893.42 21.00,917.53 21.00,917.53
             12.68,920.70 3.38,916.71 0.65,908.00
             -0.11,905.59 0.00,902.53 0.00,900.00
             0.00,900.00 0.00,523.00 0.00,523.00
             0.03,503.71 12.40,498.53 27.00,490.15
             27.00,490.15 59.00,471.72 59.00,471.72
             59.00,471.72 200.00,390.58 200.00,390.58
             200.00,390.58 243.00,365.85 243.00,365.85
             250.62,361.50 259.60,355.46 268.00,353.47 Z
           M 2281.00,356.46
           C 2294.08,354.66 2301.19,359.79 2312.00,366.00
             2312.00,366.00 2346.00,385.72 2346.00,385.72
             2346.00,385.72 2430.00,434.58 2430.00,434.58
             2430.00,434.58 2505.00,478.01 2505.00,478.01
             2505.00,478.01 2531.00,493.15 2531.00,493.15
             2547.68,502.72 2559.97,508.31 2560.00,530.00
             2560.00,530.00 2560.00,594.00 2560.00,594.00
             2559.96,618.54 2542.08,623.89 2524.00,634.60
             2524.00,634.60 2444.00,681.01 2444.00,681.01
             2444.00,681.01 2414.00,698.42 2414.00,698.42
             2414.00,698.42 2397.00,708.02 2397.00,708.02
             2388.46,711.42 2378.58,708.34 2375.65,699.00
             2374.89,696.59 2375.00,693.53 2375.00,691.00
             2375.00,691.00 2375.00,631.00 2375.00,631.00
             2374.97,613.52 2365.53,611.34 2352.00,603.58
             2352.00,603.58 2320.00,585.15 2320.00,585.15
             2320.00,585.15 2295.00,570.72 2295.00,570.72
             2291.06,568.50 2286.74,565.63 2282.00,566.43
             2277.45,567.19 2263.75,575.82 2259.00,578.58
             2259.00,578.58 2212.00,605.58 2212.00,605.58
             2200.19,612.35 2193.02,613.99 2193.00,629.00
             2193.00,629.00 2193.00,711.00 2193.00,711.00
             2193.16,722.77 2199.96,725.24 2209.00,730.42
             2209.00,730.42 2240.00,748.20 2240.00,748.20
             2240.00,748.20 2298.00,781.43 2298.00,781.43
             2298.00,781.43 2397.00,838.28 2397.00,838.28
             2397.00,838.28 2439.00,862.42 2439.00,862.42
             2447.57,867.33 2454.76,870.47 2453.90,882.00
             2453.32,889.91 2448.25,892.98 2442.00,896.57
             2442.00,896.57 2417.00,910.42 2417.00,910.42
             2417.00,910.42 2328.00,959.86 2328.00,959.86
             2320.81,963.87 2298.47,976.99 2292.00,978.47
             2289.28,979.10 2285.82,979.03 2283.00,979.00
             2271.26,978.86 2257.20,968.67 2247.00,962.85
             2247.00,962.85 2174.00,921.28 2174.00,921.28
             2174.00,921.28 2093.00,875.15 2093.00,875.15
             2093.00,875.15 2052.00,851.77 2052.00,851.77
             2041.44,846.03 2020.77,836.05 2014.95,826.00
             2011.60,820.20 2011.01,814.52 2011.00,808.00
             2011.00,808.00 2011.00,530.00 2011.00,530.00
             2011.04,507.48 2022.72,503.07 2040.00,493.15
             2040.00,493.15 2069.00,476.40 2069.00,476.40
             2069.00,476.40 2145.00,432.58 2145.00,432.58
             2145.00,432.58 2214.00,392.72 2214.00,392.72
             2214.00,392.72 2252.00,370.80 2252.00,370.80
             2260.90,365.50 2270.92,358.71 2281.00,356.46 Z
           M 938.00,357.52
           C 955.39,354.76 968.72,366.00 983.00,374.15
             983.00,374.15 1071.00,424.72 1071.00,424.72
             1071.00,424.72 1142.00,465.42 1142.00,465.42
             1142.00,465.42 1180.00,487.74 1180.00,487.74
             1180.00,487.74 1194.00,495.83 1194.00,495.83
             1209.77,504.54 1218.97,510.20 1219.00,530.00
             1219.00,530.00 1219.00,747.00 1219.00,747.00
             1219.00,747.00 1218.00,762.00 1218.00,762.00
             1218.00,762.00 1218.00,806.00 1218.00,806.00
             1218.01,810.53 1218.84,815.77 1217.44,820.00
             1213.30,832.47 1203.45,836.85 1193.00,842.85
             1193.00,842.85 1177.00,852.15 1177.00,852.15
             1177.00,852.15 1080.00,908.55 1080.00,908.55
             1080.00,908.55 1057.00,921.42 1057.00,921.42
             1057.00,921.42 984.00,963.45 984.00,963.45
             972.63,970.27 956.51,981.84 943.00,980.82
             931.42,979.94 917.24,970.10 907.00,964.28
             907.00,964.28 836.00,923.28 836.00,923.28
             836.00,923.28 711.00,851.15 711.00,851.15
             703.59,846.85 682.12,835.31 677.52,829.91
             671.68,823.05 670.01,814.73 670.00,806.00
             670.00,806.00 670.00,530.00 670.00,530.00
             670.02,519.82 673.26,509.77 682.00,503.65
             682.00,503.65 698.00,495.72 698.00,495.72
             698.00,495.72 729.00,477.99 729.00,477.99
             729.00,477.99 770.00,454.19 770.00,454.19
             770.00,454.19 788.00,442.31 788.00,442.31
             788.00,442.31 822.00,423.13 822.00,423.13
             822.00,423.13 871.00,394.58 871.00,394.58
             871.00,394.58 912.00,370.58 912.00,370.58
             921.06,365.32 927.68,360.29 938.00,357.52 Z
           M 1612.00,569.41
           C 1606.69,571.03 1590.70,580.81 1585.00,584.20
             1585.00,584.20 1542.00,609.00 1542.00,609.00
             1537.70,611.47 1526.36,617.14 1524.17,621.10
             1522.79,623.61 1523.00,627.19 1523.00,630.00
             1523.00,630.00 1523.00,716.00 1523.00,716.00
             1523.02,727.23 1524.52,726.58 1539.00,734.85
             1539.00,734.85 1577.00,756.72 1577.00,756.72
             1577.00,756.72 1604.00,772.28 1604.00,772.28
             1607.64,774.35 1611.59,777.38 1616.00,776.31
             1619.18,775.54 1635.99,765.36 1640.00,763.01
             1640.00,763.01 1687.00,736.00 1687.00,736.00
             1691.88,733.20 1702.43,728.21 1704.40,722.99
             1705.11,721.10 1705.00,718.05 1705.00,716.00
             1705.00,716.00 1705.00,630.00 1705.00,630.00
             1704.98,617.19 1700.57,617.43 1688.00,610.28
             1688.00,610.28 1651.00,588.85 1651.00,588.85
             1651.00,588.85 1627.00,575.00 1627.00,575.00
             1621.79,572.01 1618.20,568.90 1612.00,569.41 Z
           M 2283.00,607.74
           C 2290.19,606.82 2300.68,614.69 2307.00,618.28
             2307.00,618.28 2327.00,629.85 2327.00,629.85
             2330.21,631.68 2335.13,634.05 2337.15,637.10
             2339.23,640.27 2338.99,644.37 2339.00,648.00
             2339.00,648.00 2339.00,687.00 2339.00,687.00
             2338.99,690.68 2339.24,694.68 2337.15,697.91
             2334.93,701.33 2330.46,703.42 2327.00,705.42
             2327.00,705.42 2310.00,715.28 2310.00,715.28
             2304.38,718.48 2289.83,728.51 2284.00,727.57
             2280.43,727.00 2271.58,721.47 2268.00,719.42
             2268.00,719.42 2244.00,705.58 2244.00,705.58
             2240.79,703.74 2234.97,700.97 2233.17,697.82
             2231.78,695.37 2232.00,691.76 2232.00,689.00
             2232.00,689.00 2232.00,646.00 2232.00,646.00
             2232.01,642.26 2231.66,639.24 2234.31,636.21
             2236.75,633.42 2247.21,627.88 2251.00,625.72
             2251.00,625.72 2283.00,607.74 2283.00,607.74 Z
           M 1257.00,936.44
           C 1280.34,933.45 1294.91,944.78 1314.00,955.99
             1314.00,955.99 1383.00,995.80 1383.00,995.80
             1383.00,995.80 1500.00,1063.42 1500.00,1063.42
             1507.92,1067.96 1523.86,1076.47 1529.96,1082.17
             1540.40,1091.92 1544.98,1104.98 1545.00,1119.00
             1545.00,1119.00 1545.00,1384.00 1545.00,1384.00
             1544.98,1398.26 1540.39,1410.87 1529.96,1420.91
             1523.83,1426.81 1496.11,1442.10 1487.00,1447.28
             1487.00,1447.28 1343.00,1530.42 1343.00,1530.42
             1343.00,1530.42 1300.00,1555.28 1300.00,1555.28
             1290.84,1560.49 1283.86,1565.98 1273.00,1566.00
             1273.00,1566.00 1255.00,1566.00 1255.00,1566.00
             1244.96,1565.83 1235.36,1558.41 1227.00,1553.40
             1227.00,1553.40 1178.00,1524.40 1178.00,1524.40
             1178.00,1524.40 1161.02,1514.22 1161.02,1514.22
             1159.03,1512.71 1155.92,1510.13 1157.17,1507.27
             1158.03,1505.30 1161.15,1504.31 1163.00,1503.58
             1163.00,1503.58 1177.00,1498.14 1177.00,1498.14
             1182.72,1495.61 1194.71,1487.68 1200.00,1488.26
             1203.87,1488.70 1212.30,1494.38 1216.00,1496.60
             1216.00,1496.60 1248.00,1515.60 1248.00,1515.60
             1251.65,1517.79 1261.18,1524.22 1265.00,1524.22
             1268.74,1524.22 1277.39,1518.34 1281.00,1516.28
             1281.00,1516.28 1318.00,1495.00 1318.00,1495.00
             1318.00,1495.00 1453.00,1417.01 1453.00,1417.01
             1453.00,1417.01 1485.00,1398.58 1485.00,1398.58
             1496.04,1392.25 1502.98,1391.00 1503.00,1377.00
             1503.00,1377.00 1503.00,1126.00 1503.00,1126.00
             1503.00,1123.56 1503.13,1120.27 1502.26,1118.00
             1499.85,1111.71 1486.97,1105.56 1481.00,1102.15
             1481.00,1102.15 1413.00,1062.99 1413.00,1062.99
             1413.00,1062.99 1308.00,1002.40 1308.00,1002.40
             1308.00,1002.40 1279.00,985.60 1279.00,985.60
             1275.99,983.82 1268.16,978.78 1265.00,978.78
             1261.76,978.78 1255.95,982.86 1253.00,984.58
             1253.00,984.58 1226.00,1000.15 1226.00,1000.15
             1226.00,1000.15 1125.00,1058.40 1125.00,1058.40
             1125.00,1058.40 1050.00,1101.60 1050.00,1101.60
             1043.83,1105.26 1030.24,1111.47 1027.74,1118.00
             1026.87,1120.27 1027.00,1123.56 1027.00,1126.00
             1027.00,1126.00 1027.00,1377.00 1027.00,1377.00
             1027.00,1379.98 1026.79,1383.27 1028.17,1386.00
             1030.40,1390.38 1034.93,1392.66 1039.00,1395.00
             1039.00,1395.00 1059.00,1406.58 1059.00,1406.58
             1059.00,1406.58 1072.00,1414.01 1072.00,1414.01
             1091.66,1425.56 1119.28,1445.33 1139.91,1423.96
             1142.88,1420.88 1145.49,1417.07 1146.89,1413.00
             1148.42,1408.58 1148.99,1400.74 1149.00,1396.00
             1149.00,1396.00 1149.00,1195.00 1149.00,1195.00
             1149.00,1195.00 1149.00,1144.00 1149.00,1144.00
             1149.06,1134.75 1151.32,1134.02 1160.00,1134.00
             1160.00,1134.00 1182.00,1134.00 1182.00,1134.00
             1191.69,1134.14 1191.99,1137.36 1192.00,1146.00
             1192.00,1146.00 1192.00,1409.00 1192.00,1409.00
             1191.98,1419.02 1190.22,1427.56 1187.00,1437.00
             1184.48,1444.35 1181.22,1449.93 1176.33,1455.99
             1164.33,1470.86 1142.45,1476.97 1124.00,1477.00
             1089.40,1477.05 1063.82,1459.97 1035.00,1442.80
             1010.64,1428.29 985.05,1419.56 985.00,1386.00
             985.00,1386.00 985.00,1117.00 985.00,1117.00
             985.03,1100.90 991.91,1087.49 1005.00,1077.93
             1005.00,1077.93 1019.00,1069.58 1019.00,1069.58
             1019.00,1069.58 1040.00,1057.42 1040.00,1057.42
             1040.00,1057.42 1182.00,975.58 1182.00,975.58
             1182.00,975.58 1225.00,950.72 1225.00,950.72
             1236.47,944.20 1243.70,938.93 1257.00,936.44 Z
           M 1618.00,1059.44
           C 1634.02,1057.39 1649.18,1062.34 1659.67,1075.00
             1676.29,1095.06 1672.02,1127.20 1650.00,1141.45
             1644.38,1145.09 1637.60,1147.52 1631.00,1148.56
             1609.85,1151.90 1588.10,1138.53 1581.77,1118.00
             1579.93,1112.02 1579.93,1107.14 1580.00,1101.00
             1580.13,1090.30 1585.42,1078.67 1593.17,1071.30
             1600.27,1064.54 1608.53,1061.21 1618.00,1059.44 Z
           M 1620.00,1067.30
           C 1607.85,1069.59 1598.53,1074.89 1592.35,1086.00
             1579.22,1109.61 1596.17,1139.35 1623.00,1140.91
             1627.07,1141.14 1632.11,1140.16 1636.00,1138.96
             1668.72,1128.86 1670.39,1082.02 1638.00,1069.47
             1632.23,1067.23 1626.10,1066.69 1620.00,1067.30 Z
           M 1644.00,1129.00
           C 1640.79,1129.00 1635.35,1129.80 1633.43,1126.69
             1631.39,1123.38 1632.95,1107.12 1622.06,1109.36
             1613.57,1111.10 1622.12,1126.68 1614.86,1128.68
             1607.90,1130.60 1608.01,1124.75 1608.00,1120.00
             1608.00,1120.00 1608.00,1087.00 1608.00,1087.00
             1608.00,1084.70 1607.62,1080.59 1609.60,1079.02
             1611.39,1077.60 1617.59,1078.00 1620.00,1078.00
             1626.84,1078.01 1638.12,1078.14 1641.69,1085.04
             1645.88,1093.17 1639.73,1101.64 1639.46,1104.00
             1639.21,1106.17 1640.97,1109.52 1641.52,1112.00
             1641.52,1112.00 1644.00,1129.00 1644.00,1129.00 Z
           M 1620.31,1087.60
           C 1615.08,1092.01 1617.75,1103.50 1627.94,1099.40
             1632.50,1097.57 1633.05,1091.52 1629.69,1088.85
             1627.08,1086.79 1623.34,1086.90 1620.31,1087.60 Z
           M 1311.00,1127.21
           C 1311.00,1127.21 1338.00,1127.21 1338.00,1127.21
             1338.00,1127.21 1349.00,1127.91 1349.00,1127.91
             1371.99,1129.59 1398.00,1134.90 1416.00,1150.30
             1430.36,1162.58 1437.30,1176.75 1440.78,1195.00
             1441.97,1199.80 1444.28,1209.85 1440.78,1213.57
             1437.79,1216.36 1433.61,1215.99 1430.00,1216.00
             1430.00,1216.00 1409.00,1216.00 1409.00,1216.00
             1396.46,1215.82 1398.96,1209.10 1395.13,1200.00
             1391.87,1192.27 1387.73,1185.72 1381.00,1180.53
             1364.11,1167.49 1338.20,1168.97 1318.00,1169.00
             1304.60,1169.02 1286.30,1172.15 1276.17,1181.46
             1268.44,1188.57 1264.55,1202.92 1271.65,1211.82
             1279.22,1221.30 1306.08,1225.12 1318.00,1227.08
             1318.00,1227.08 1383.00,1237.20 1383.00,1237.20
             1397.13,1240.03 1414.91,1245.01 1427.00,1252.86
             1445.18,1264.67 1451.51,1282.13 1451.99,1303.00
             1452.47,1324.47 1443.73,1345.83 1427.00,1359.54
             1401.07,1380.79 1362.25,1384.37 1330.00,1384.00
             1330.00,1384.00 1320.00,1382.96 1320.00,1382.96
             1320.00,1382.96 1311.00,1382.96 1311.00,1382.96
             1286.18,1380.47 1255.53,1373.66 1237.00,1355.96
             1222.33,1341.95 1214.03,1324.44 1214.00,1304.00
             1213.99,1294.85 1213.29,1291.07 1224.00,1291.00
             1224.00,1291.00 1248.00,1291.00 1248.00,1291.00
             1256.95,1291.17 1256.97,1294.52 1258.66,1302.00
             1258.66,1302.00 1261.70,1312.00 1261.70,1312.00
             1264.36,1319.24 1269.74,1325.88 1276.00,1330.37
             1285.54,1337.19 1300.48,1340.01 1312.00,1341.07
             1332.19,1342.94 1356.28,1343.06 1376.00,1338.11
             1392.58,1333.94 1405.77,1323.42 1404.96,1305.00
             1404.06,1284.55 1374.82,1280.47 1359.00,1277.61
             1324.51,1271.39 1275.72,1272.34 1246.00,1252.90
             1218.58,1234.97 1214.13,1194.25 1229.87,1167.00
             1236.78,1155.04 1246.93,1146.81 1259.00,1140.48
             1276.93,1131.09 1291.73,1130.16 1311.00,1127.21 Z" />
</svg>
