<?xml version="1.0" encoding="UTF-8" standalone="no"?>
<!DOCTYPE svg PUBLIC "-//W3C//DTD SVG 20010904//EN"
              "http://www.w3.org/TR/2001/REC-SVG-20010904/DTD/svg10.dtd">

<svg xmlns="http://www.w3.org/2000/svg"
     width="3.06944in" height="3.16667in"
     viewBox="0 0 221 228">
  <path id="Selection"
        fill="none" stroke="black" stroke-width="1"
        d="M 101.00,170.00
           C 92.91,172.62 82.21,173.02 74.00,170.56
             74.00,170.56 64.00,166.31 64.00,166.31
             60.87,165.73 58.62,167.83 55.00,168.61
             50.23,169.64 44.27,169.06 40.00,166.64
             29.74,160.80 23.06,146.61 18.80,136.00
             11.80,118.56 1.03,80.35 1.00,62.00
             1.00,62.00 1.00,51.00 1.00,51.00
             1.32,24.11 18.39,6.04 45.00,3.92
             48.05,3.67 49.86,3.09 53.00,3.32
             60.39,3.88 67.74,4.66 75.00,6.21
             75.00,6.21 86.42,8.98 86.42,8.98
             86.42,8.98 99.00,4.90 99.00,4.90
             107.81,2.65 112.10,2.90 121.00,3.00
             121.00,3.00 133.00,3.70 133.00,3.70
             141.84,2.76 151.87,-0.43 161.00,0.09
             181.12,1.23 208.29,9.96 217.04,30.00
             218.52,33.41 219.81,41.22 219.96,45.00
             220.41,56.44 215.33,77.93 211.65,89.00
             207.37,101.83 199.69,118.24 193.00,130.00
             202.25,132.05 211.66,125.35 218.43,133.22
             220.10,135.16 220.89,137.46 220.89,140.00
             220.90,152.88 200.68,161.17 190.00,162.70
             185.79,163.30 178.57,161.89 175.85,165.31
             173.24,168.61 174.23,176.64 173.72,181.00
             172.50,191.25 170.92,202.10 165.29,211.00
             154.85,227.50 121.86,235.34 110.35,216.00
             100.21,198.96 105.50,183.88 101.00,170.00 Z
           M 107.00,161.00
           C 107.00,161.00 107.00,183.00 107.00,183.00
             107.01,188.31 107.96,199.04 109.44,204.00
             117.42,230.69 148.65,223.24 158.79,211.96
             167.07,202.75 167.73,181.28 169.42,169.00
             170.63,160.27 169.80,157.07 180.00,157.00
             180.00,157.00 184.00,157.00 184.00,157.00
             193.31,156.89 209.52,152.02 213.81,143.00
             215.61,139.21 214.20,135.84 209.96,135.15
             204.46,134.25 197.64,136.51 192.00,136.54
             188.40,136.56 184.19,135.51 185.67,130.98
             185.67,130.98 196.69,110.00 196.69,110.00
             204.53,92.94 210.53,75.65 213.13,57.00
             214.32,48.46 215.02,38.96 211.00,31.00
             206.40,21.87 195.29,14.36 186.00,10.60
             178.09,7.41 171.52,6.01 163.00,6.22
             163.00,6.22 147.00,6.22 147.00,6.22
             147.00,6.22 132.00,9.51 132.00,9.51
             126.73,9.86 119.30,6.80 108.00,8.43
             95.41,10.24 92.10,14.04 88.00,14.43
             85.49,14.67 78.84,12.58 76.00,11.87
             68.55,10.01 63.75,9.01 56.00,9.00
             56.00,9.00 47.00,9.00 47.00,9.00
             27.17,9.24 12.62,20.67 7.90,40.00
             6.30,46.53 5.93,53.31 6.00,60.00
             6.11,68.70 9.36,83.22 11.35,92.00
             14.72,106.89 20.07,126.40 26.76,140.00
             30.52,147.64 36.33,159.64 45.00,162.35
             55.54,165.65 59.83,158.66 67.13,153.00
             66.74,155.12 66.33,156.89 67.13,158.96
             71.21,167.68 89.40,167.47 97.00,164.90
             97.00,164.90 107.00,161.00 107.00,161.00 Z
           M 147.00,14.00
           C 152.45,12.45 158.37,12.94 164.00,13.00
             177.97,13.17 197.84,21.17 204.56,34.00
             206.82,38.30 207.09,43.24 206.99,48.00
             206.61,64.65 199.54,85.75 193.00,101.00
             190.31,107.28 186.00,117.59 181.00,122.00
             183.94,99.71 180.79,103.56 181.00,85.00
             181.00,85.00 182.91,64.00 182.91,64.00
             182.43,57.07 178.15,48.86 174.54,43.00
             170.26,36.05 164.18,29.44 158.00,24.13
             153.87,20.60 149.53,18.79 147.00,14.00 Z
           M 71.00,65.00
           C 71.04,50.00 76.91,32.10 89.00,22.52
             104.20,10.48 126.55,12.53 143.00,20.76
             154.48,26.50 163.19,35.14 169.94,46.00
             171.41,48.37 175.34,54.81 174.32,57.57
             173.11,60.86 167.44,59.50 163.00,60.53
             155.51,62.26 150.52,67.37 149.33,75.00
             147.36,87.54 160.92,109.90 166.75,121.00
             166.75,121.00 172.60,131.96 172.60,131.96
             173.17,135.15 170.20,136.77 168.50,139.09
             166.61,141.67 165.75,144.87 165.07,148.00
             165.07,148.00 165.07,157.00 165.07,157.00
             165.07,157.00 158.48,200.00 158.48,200.00
             156.83,204.86 154.22,208.38 150.00,211.13
             141.83,217.09 127.49,218.63 120.21,211.13
             113.68,203.96 113.01,190.19 113.00,181.00
             113.00,181.00 113.00,158.00 113.00,158.00
             113.00,154.64 113.27,147.95 112.35,145.00
             111.25,141.50 108.89,138.83 105.99,136.68
             103.70,134.99 100.93,134.23 100.64,130.95
             100.35,127.68 105.58,116.92 106.92,113.00
             108.01,109.84 108.80,106.30 109.26,103.00
             110.52,96.57 110.02,90.41 109.26,84.00
             107.43,71.77 104.25,60.16 89.00,61.09
             89.00,61.09 71.00,65.00 71.00,65.00 Z
           M 81.00,21.00
           C 77.14,29.58 73.93,29.00 68.69,44.00
             62.50,61.76 64.21,77.72 64.00,96.00
             63.93,101.39 62.59,105.55 63.44,111.00
             64.10,115.25 65.22,119.23 67.36,123.00
             68.63,125.25 71.60,128.82 72.16,131.00
             73.37,135.72 67.27,140.70 64.42,144.00
             58.78,150.55 52.45,161.11 43.09,152.77
             41.53,151.39 40.27,149.71 39.09,148.00
             31.17,136.44 25.69,118.54 21.86,105.00
             18.54,93.28 13.14,70.78 13.00,59.00
             12.74,35.31 21.41,16.31 48.00,16.00
             59.64,15.87 70.07,16.36 81.00,21.00 Z
           M 172.00,119.00
           C 166.11,108.66 155.28,89.85 155.13,78.00
             155.03,69.78 160.57,66.59 168.00,66.09
             169.72,65.97 172.86,65.84 174.09,66.99
             176.95,69.21 174.05,80.95 174.09,85.00
             173.84,98.83 177.51,105.07 174.09,119.00
             174.09,119.00 172.00,119.00 172.00,119.00 Z
           M 86.00,67.46
           C 99.44,65.61 101.13,71.23 103.08,83.00
             105.14,95.49 104.26,105.32 99.28,117.00
             97.69,120.72 94.86,131.13 90.89,132.10
             89.13,132.54 86.63,131.73 85.00,131.05
             76.18,127.36 70.67,118.39 70.09,109.00
             70.09,109.00 70.98,98.00 70.98,98.00
             70.98,98.00 70.98,82.00 70.98,82.00
             71.02,79.07 70.82,75.82 72.74,73.39
             75.37,70.06 81.99,68.36 86.00,67.46 Z
           M 164.05,68.45
           C 157.37,71.46 161.58,75.56 165.95,74.64
             169.95,73.80 171.93,67.82 164.05,68.45 Z
           M 99.00,71.00
           C 99.00,71.00 94.00,70.16 94.00,70.16
             94.00,70.16 91.11,70.16 91.11,70.16
             81.56,71.49 94.50,83.38 98.40,74.77
             98.94,73.58 98.90,72.26 99.00,71.00 Z
           M 68.00,152.00
           C 69.19,147.94 75.84,138.87 80.04,137.78
             81.96,137.28 90.67,138.50 88.83,143.00
             86.97,147.56 72.97,150.28 68.00,152.00 Z
           M 78.00,156.00
           C 83.56,154.38 87.40,153.75 91.99,149.79
             94.71,147.44 98.31,141.95 101.96,142.00
             109.89,142.12 105.45,151.58 101.96,154.47
             95.69,159.62 85.53,160.14 78.00,158.00
             78.00,158.00 78.00,156.00 78.00,156.00 Z
           M 201.00,143.00
           C 196.98,150.31 185.39,150.12 178.00,150.00
             176.53,149.97 173.98,150.07 172.83,149.01
             170.90,147.24 171.64,140.31 179.00,141.39
             183.20,142.01 186.81,144.26 193.00,143.82
             193.00,143.82 201.00,143.00 201.00,143.00 Z" />
</svg>
