<?xml version="1.0" encoding="UTF-8" standalone="no"?>
<!DOCTYPE svg PUBLIC "-//W3C//DTD SVG 20010904//EN"
              "http://www.w3.org/TR/2001/REC-SVG-20010904/DTD/svg10.dtd">

<svg xmlns="http://www.w3.org/2000/svg"
     width="8.88889in" height="9.73611in"
     viewBox="0 0 640 701">
  <path id="Selection"
        fill="none" stroke="black" stroke-width="1"
        d="M 283.00,27.21
           C 283.00,27.21 337.00,27.21 337.00,27.21
             337.00,27.21 368.00,29.84 368.00,29.84
             379.05,31.02 390.28,32.37 401.00,35.43
             426.21,42.62 449.05,60.22 458.80,85.00
             461.74,92.49 462.99,98.97 463.00,107.00
             463.00,107.00 463.00,257.00 463.00,257.00
             462.94,297.44 427.46,328.94 388.00,329.00
             388.00,329.00 271.00,329.00 271.00,329.00
             271.00,329.00 238.00,329.00 238.00,329.00
             219.19,329.03 198.67,336.92 184.00,348.51
             163.68,364.56 147.04,390.44 147.00,417.00
             147.00,417.00 147.00,453.00 147.00,453.00
             147.00,453.00 147.00,478.00 147.00,478.00
             147.00,480.41 147.40,486.60 145.98,488.40
             144.41,490.38 140.30,490.00 138.00,490.00
             138.00,490.00 94.00,490.00 94.00,490.00
             88.24,489.93 78.61,488.34 73.00,486.85
             30.74,475.56 17.93,430.63 10.40,393.00
             8.17,381.85 5.02,362.06 5.00,351.00
             4.95,318.13 5.39,302.57 13.12,270.00
             18.85,245.80 25.09,227.64 44.00,210.09
             60.16,195.09 83.97,186.03 106.00,186.00
             106.00,186.00 140.00,186.00 140.00,186.00
             140.00,186.00 303.00,186.00 303.00,186.00
             305.74,185.99 309.38,186.31 311.57,184.40
             314.90,181.51 314.28,171.40 310.69,169.02
             308.83,167.79 305.20,168.00 303.00,168.00
             303.00,168.00 196.00,168.00 196.00,168.00
             196.00,168.00 172.00,168.00 172.00,168.00
             170.18,167.99 167.08,168.15 165.60,166.98
             163.62,165.41 164.00,161.30 164.00,159.00
             164.00,159.00 164.00,108.00 164.00,108.00
             164.13,97.49 166.12,81.68 170.09,72.00
             176.36,56.74 189.34,48.09 204.00,42.01
             222.86,34.19 251.49,30.12 272.00,28.17
             272.00,28.17 283.00,27.21 283.00,27.21 Z
           M 227.00,73.30
           C 220.84,74.46 215.97,76.04 211.30,80.47
             192.08,98.68 205.89,132.32 234.00,128.82
             262.08,125.32 265.54,83.92 239.00,74.76
             234.62,73.25 231.57,72.89 227.00,73.30 Z
           M 482.60,187.02
           C 487.04,185.13 495.90,186.00 501.00,186.00
             501.00,186.00 541.00,186.00 541.00,186.00
             576.74,186.42 595.59,212.32 607.05,243.00
             612.22,256.84 615.87,274.38 618.61,289.00
             618.61,289.00 622.28,311.00 622.28,311.00
             622.28,311.00 623.91,319.00 623.91,319.00
             623.91,319.00 623.91,340.00 623.91,340.00
             623.96,366.96 621.24,388.27 612.67,414.00
             603.21,442.36 591.22,476.36 560.00,486.64
             553.55,488.77 542.83,489.99 536.00,490.00
             536.00,490.00 409.00,490.00 409.00,490.00
             409.00,490.00 396.00,491.00 396.00,491.00
             396.00,491.00 387.00,491.00 387.00,491.00
             387.00,491.00 373.00,490.00 373.00,490.00
             373.00,490.00 324.00,490.00 324.00,490.00
             321.46,490.01 317.52,489.68 315.60,491.60
             313.07,494.13 313.35,503.86 316.43,505.98
             318.24,507.22 321.84,507.00 324.00,507.00
             324.00,507.00 369.00,507.00 369.00,507.00
             369.00,507.00 382.00,507.99 382.00,507.99
             382.00,507.99 397.00,507.00 397.00,507.00
             397.00,507.00 454.00,507.00 454.00,507.00
             456.19,507.00 459.84,506.79 461.69,508.02
             465.88,510.82 463.01,525.05 463.00,530.00
             463.00,530.00 463.00,563.00 463.00,563.00
             463.15,575.38 464.69,577.32 459.55,590.00
             444.30,627.62 393.95,643.56 357.00,649.13
             357.00,649.13 335.00,652.38 335.00,652.38
             335.00,652.38 329.00,652.38 329.00,652.38
             329.00,652.38 315.00,654.00 315.00,654.00
             315.00,654.00 296.00,652.09 296.00,652.09
             296.00,652.09 276.00,650.71 276.00,650.71
             257.61,648.29 231.67,641.24 215.00,633.25
             196.55,624.41 180.38,614.06 171.13,595.00
             163.83,579.97 163.81,566.20 164.00,550.00
             164.00,550.00 164.96,536.00 164.96,536.00
             164.96,536.00 164.00,523.00 164.00,523.00
             164.00,523.00 164.00,424.00 164.00,424.00
             164.19,383.92 195.64,347.06 237.00,347.00
             237.00,347.00 387.00,347.00 387.00,347.00
             424.47,346.82 454.68,326.13 471.25,293.00
             477.25,280.99 480.98,267.49 481.00,254.00
             481.00,254.00 481.00,206.00 481.00,206.00
             481.00,201.04 479.86,190.85 482.60,187.02 Z
           M 392.00,548.33
           C 360.81,555.80 366.65,600.10 396.00,601.91
             409.38,602.73 421.69,593.30 424.02,580.00
             424.48,577.34 424.17,574.68 424.02,572.00
             423.62,564.98 421.25,559.12 415.91,554.33
             408.73,547.88 401.13,547.31 392.00,548.33 Z" />
</svg>
