<?xml version="1.0" encoding="UTF-8" standalone="no"?>
<!DOCTYPE svg PUBLIC "-//W3C//DTD SVG 20010904//EN"
              "http://www.w3.org/TR/2001/REC-SVG-20010904/DTD/svg10.dtd">

<svg xmlns="http://www.w3.org/2000/svg"
     width="16.6667in" height="15.1528in"
     viewBox="0 0 1200 1091">
  <path id="Selection"
        fill="none" stroke="black" stroke-width="1"
        d="M 382.00,36.42
           C 395.83,34.74 418.18,37.45 432.00,40.20
             471.87,48.13 506.38,64.61 541.00,85.40
             541.00,85.40 583.00,113.89 583.00,113.89
             586.41,116.45 596.22,125.18 600.00,125.26
             603.14,125.34 607.56,121.13 610.00,119.21
             610.00,119.21 633.00,102.34 633.00,102.34
             659.01,84.64 690.58,65.62 720.00,54.42
             743.20,45.59 767.16,38.73 792.00,36.91
             792.00,36.91 802.00,36.00 802.00,36.00
             819.75,35.80 837.98,37.75 855.00,43.02
             925.55,64.89 956.40,131.93 965.28,200.00
             966.80,211.66 967.98,223.24 968.00,235.00
             968.00,235.00 968.99,252.00 968.99,252.00
             968.99,252.00 968.00,266.00 968.00,266.00
             967.98,279.62 967.36,293.50 965.58,307.00
             965.58,307.00 963.13,327.00 963.13,327.00
             962.76,329.72 961.86,333.27 963.64,335.61
             965.84,338.51 979.87,343.45 984.00,345.30
             984.00,345.30 1034.00,369.86 1034.00,369.86
             1081.21,396.07 1129.67,434.82 1152.30,485.00
             1160.42,502.99 1164.18,518.34 1165.04,538.00
             1165.04,538.00 1165.68,547.00 1165.68,547.00
             1164.36,564.58 1163.56,574.94 1157.66,592.00
             1138.67,646.89 1090.69,687.38 1042.00,715.99
             1023.92,726.61 1005.25,735.98 986.00,744.28
             986.00,744.28 970.00,750.99 970.00,750.99
             967.74,751.94 964.32,753.04 963.06,755.27
             961.67,757.73 963.75,768.64 964.15,772.00
             964.15,772.00 967.09,803.00 967.09,803.00
             967.09,803.00 968.04,815.00 968.04,815.00
             968.04,815.00 968.04,830.00 968.04,830.00
             968.04,830.00 968.96,841.00 968.96,841.00
             968.96,841.00 968.04,849.00 968.04,849.00
             968.04,849.00 968.04,861.00 968.04,861.00
             967.94,872.63 965.38,891.29 963.41,903.00
             955.20,951.92 934.14,1000.73 892.00,1029.65
             881.05,1037.17 867.62,1043.37 855.00,1047.48
             834.99,1054.00 816.68,1054.24 796.00,1054.00
             783.21,1053.85 761.50,1049.30 749.00,1045.71
             714.83,1035.89 686.21,1021.73 656.00,1003.19
             656.00,1003.19 617.00,976.58 617.00,976.58
             613.88,974.16 603.37,965.12 600.00,965.12
             597.18,965.12 591.37,970.08 589.00,971.88
             589.00,971.88 565.00,989.50 565.00,989.50
             537.73,1008.02 506.90,1025.91 476.00,1037.58
             455.60,1045.27 424.73,1053.74 403.00,1054.00
             377.49,1054.29 358.17,1053.31 334.00,1043.55
             275.23,1019.81 246.54,962.32 236.59,903.00
             234.09,888.12 232.02,872.07 232.00,857.00
             232.00,857.00 231.00,838.00 231.00,838.00
             231.00,838.00 232.00,823.00 232.00,823.00
             232.00,823.00 234.17,785.00 234.17,785.00
             234.17,785.00 236.87,764.00 236.87,764.00
             237.11,761.79 237.90,757.16 236.87,755.27
             235.70,753.05 232.22,751.90 230.00,751.00
             230.00,751.00 214.00,744.23 214.00,744.23
             192.49,734.41 174.51,725.49 154.00,713.58
             109.41,687.69 62.71,646.16 44.06,597.00
             36.89,578.08 35.79,565.67 34.32,546.00
             34.32,546.00 34.96,537.00 34.96,537.00
             35.83,517.10 40.37,501.05 48.69,483.00
             71.32,433.95 119.64,395.60 166.00,369.86
             166.00,369.86 215.00,345.72 215.00,345.72
             219.21,343.90 234.16,338.52 236.36,335.61
             238.14,333.27 237.24,329.72 236.87,327.00
             236.87,327.00 234.28,306.00 234.28,306.00
             234.28,306.00 232.00,268.00 232.00,268.00
             232.00,268.00 231.00,250.00 231.00,250.00
             231.00,250.00 231.96,240.00 231.96,240.00
             231.96,240.00 231.96,227.00 231.96,227.00
             232.14,215.00 235.13,195.05 237.39,183.00
             247.42,129.40 271.70,78.86 322.00,52.48
             337.44,44.39 354.73,39.42 372.00,37.29
             372.00,37.29 382.00,36.42 382.00,36.42 Z
           M 291.00,317.00
           C 298.63,316.83 319.92,310.14 329.00,307.87
             329.00,307.87 401.00,292.41 401.00,292.41
             401.00,292.41 433.00,287.28 433.00,287.28
             437.12,286.74 446.63,286.10 449.83,284.07
             452.49,282.37 464.28,266.67 467.26,263.00
             467.26,263.00 505.42,218.00 505.42,218.00
             505.42,218.00 544.00,178.00 544.00,178.00
             546.88,175.12 557.15,166.84 554.95,162.46
             553.89,160.36 545.35,154.38 543.00,152.63
             543.00,152.63 507.00,129.00 507.00,129.00
             507.00,129.00 482.00,115.25 482.00,115.25
             434.07,91.45 367.29,74.01 325.04,118.00
             299.18,144.92 290.59,187.07 287.04,223.00
             287.04,223.00 287.04,232.00 287.04,232.00
             287.04,232.00 286.00,244.00 286.00,244.00
             286.00,244.00 286.00,261.00 286.00,261.00
             286.00,261.00 287.00,279.00 287.00,279.00
             287.00,279.00 291.00,317.00 291.00,317.00 Z
           M 909.00,317.00
           C 910.70,307.54 912.98,285.45 913.00,276.00
             913.00,276.00 914.00,259.00 914.00,259.00
             914.07,212.75 908.16,151.63 873.99,117.00
             831.76,74.23 765.34,91.73 718.00,115.25
             718.00,115.25 693.00,129.00 693.00,129.00
             693.00,129.00 657.00,152.63 657.00,152.63
             654.42,154.54 646.24,160.01 645.05,162.44
             642.87,166.88 653.08,175.08 656.00,178.00
             656.00,178.00 694.42,218.00 694.42,218.00
             694.42,218.00 732.75,263.00 732.75,263.00
             736.06,267.00 747.08,282.10 750.17,284.07
             753.09,285.93 762.12,286.59 766.00,287.13
             766.00,287.13 799.00,292.41 799.00,292.41
             799.00,292.41 865.00,306.15 865.00,306.15
             874.56,308.67 901.09,316.82 909.00,317.00 Z
           M 672.00,278.00
           C 670.41,270.51 663.21,264.62 658.28,259.00
             658.28,259.00 635.04,234.00 635.04,234.00
             635.04,234.00 618.00,216.72 618.00,216.72
             614.43,213.57 604.11,201.63 600.00,201.63
             596.09,201.63 585.55,213.50 582.00,216.58
             582.00,216.58 541.58,259.00 541.58,259.00
             536.79,264.54 529.54,270.74 528.00,278.00
             567.41,274.81 632.59,274.81 672.00,278.00 Z
           M 586.00,330.19
           C 577.30,331.53 566.02,330.99 557.00,331.00
             557.00,331.00 542.00,332.00 542.00,332.00
             542.00,332.00 511.00,333.91 511.00,333.91
             511.00,333.91 489.00,335.72 489.00,335.72
             486.19,336.05 482.63,335.80 480.17,337.17
             476.95,338.98 470.71,348.56 468.34,352.00
             468.34,352.00 446.05,385.00 446.05,385.00
             422.96,421.40 401.04,458.43 381.75,497.00
             381.75,497.00 366.78,528.00 366.78,528.00
             365.32,531.09 360.52,541.25 360.25,544.00
             359.80,548.73 364.61,557.59 366.74,562.00
             366.74,562.00 382.75,595.00 382.75,595.00
             402.84,635.18 425.41,674.61 450.33,712.00
             450.33,712.00 470.14,741.00 470.14,741.00
             472.45,744.24 476.85,751.16 480.09,752.99
             483.45,754.89 499.38,755.82 504.00,756.04
             504.00,756.04 532.00,758.00 532.00,758.00
             532.00,758.00 546.00,759.04 546.00,759.04
             546.00,759.04 560.00,759.04 560.00,759.04
             560.00,759.04 572.00,760.00 572.00,760.00
             572.00,760.00 628.00,760.00 628.00,760.00
             628.00,760.00 645.00,759.00 645.00,759.00
             645.00,759.00 694.00,756.17 694.00,756.17
             699.39,755.65 715.98,755.21 719.91,752.99
             723.19,751.14 728.20,743.35 730.58,740.00
             730.58,740.00 752.33,708.00 752.33,708.00
             777.14,670.61 799.19,631.11 819.25,591.00
             819.25,591.00 833.78,561.00 833.78,561.00
             835.76,556.81 839.81,549.54 839.79,545.00
             839.78,541.20 836.58,535.66 835.00,532.00
             835.00,532.00 819.25,499.00 819.25,499.00
             800.51,461.53 775.18,416.78 752.00,382.00
             752.00,382.00 730.98,351.00 730.98,351.00
             728.69,347.70 722.96,338.93 719.83,337.17
             717.37,335.80 713.81,336.05 711.00,335.72
             711.00,335.72 687.00,333.72 687.00,333.72
             687.00,333.72 662.00,332.00 662.00,332.00
             662.00,332.00 645.00,331.00 645.00,331.00
             645.00,331.00 624.00,331.00 624.00,331.00
             624.00,331.00 612.00,330.19 612.00,330.19
             612.00,330.19 586.00,330.19 586.00,330.19 Z
           M 404.00,349.00
           C 397.11,347.19 383.39,351.30 376.00,352.80
             376.00,352.80 325.00,365.29 325.00,365.29
             317.60,367.39 307.69,369.59 301.00,373.00
             307.28,406.38 319.25,440.76 330.00,473.00
             330.00,473.00 333.00,473.00 333.00,473.00
             346.45,445.04 362.10,417.52 378.20,391.00
             378.20,391.00 404.00,349.00 404.00,349.00 Z
           M 899.00,373.00
           C 892.31,369.59 882.40,367.39 875.00,365.29
             875.00,365.29 825.00,353.00 825.00,353.00
             817.70,351.49 802.65,347.26 796.00,349.00
             796.00,349.00 816.95,383.00 816.95,383.00
             816.95,383.00 843.70,429.00 843.70,429.00
             843.70,429.00 858.75,457.00 858.75,457.00
             861.66,462.82 864.15,469.54 869.00,474.00
             869.00,474.00 880.00,443.00 880.00,443.00
             885.66,426.02 895.76,390.20 899.00,373.00 Z
           M 249.00,392.00
           C 241.26,393.21 225.49,401.01 218.00,404.75
             198.21,414.65 183.51,422.60 165.00,435.00
             147.44,446.76 132.07,460.11 118.15,476.00
             110.43,484.82 103.20,495.32 98.31,506.00
             93.39,516.74 90.29,528.24 89.17,540.00
             87.66,555.76 92.77,573.06 99.75,587.00
             115.03,617.47 144.57,642.67 173.00,660.68
             190.22,671.59 208.26,681.91 227.00,690.00
             230.79,691.64 243.49,697.99 246.86,697.50
             250.39,696.99 250.93,691.85 251.58,689.00
             251.58,689.00 258.58,662.00 258.58,662.00
             266.98,632.51 277.05,603.74 287.68,575.00
             287.68,575.00 298.57,546.00 298.57,546.00
             298.78,543.38 297.91,541.38 297.00,539.00
             297.00,539.00 269.34,464.00 269.34,464.00
             269.34,464.00 255.15,416.00 255.15,416.00
             255.15,416.00 249.00,392.00 249.00,392.00 Z
           M 951.00,392.00
           C 951.00,392.00 931.66,461.00 931.66,461.00
             931.66,461.00 910.58,520.00 910.58,520.00
             910.58,520.00 902.46,540.00 902.46,540.00
             901.74,541.97 901.16,543.87 901.30,546.00
             901.30,546.00 912.32,575.00 912.32,575.00
             922.88,603.55 933.69,632.51 941.37,662.00
             941.37,662.00 948.37,689.00 948.37,689.00
             949.09,691.85 949.61,696.99 953.14,697.50
             956.26,697.96 969.43,691.73 973.00,690.14
             991.30,681.99 1009.02,672.00 1026.00,661.42
             1063.21,638.25 1104.66,600.95 1110.15,555.00
             1110.79,549.66 1111.29,546.54 1110.91,541.00
             1110.16,530.01 1107.19,519.14 1102.99,509.00
             1098.82,498.94 1090.53,486.38 1083.57,478.00
             1069.43,460.98 1053.16,447.54 1035.00,435.02
             1016.43,422.23 1001.94,414.72 982.00,404.75
             974.23,400.87 959.15,393.28 951.00,392.00 Z
           M 591.00,437.21
           C 591.00,437.21 602.00,437.21 602.00,437.21
             613.87,437.06 629.00,440.15 640.00,444.60
             656.41,451.25 671.16,461.51 682.70,475.00
             716.13,514.06 716.34,573.04 684.55,613.00
             676.53,623.08 668.03,630.67 657.00,637.39
             635.12,650.71 618.01,653.29 593.00,653.00
             582.33,652.87 569.90,649.72 560.00,645.80
             500.17,622.09 475.79,554.29 502.89,497.00
             514.60,472.24 538.96,451.18 565.00,442.74
             575.63,439.30 580.35,438.97 591.00,437.21 Z
           M 332.00,617.00
           C 327.14,621.92 324.89,632.33 322.67,639.00
             322.67,639.00 306.71,693.00 306.71,693.00
             306.71,693.00 302.38,711.00 302.38,711.00
             301.78,713.65 301.02,716.11 303.35,718.16
             305.06,719.66 309.72,720.77 312.00,721.42
             312.00,721.42 330.00,726.58 330.00,726.58
             354.00,733.25 378.54,738.40 403.00,743.00
             403.00,743.00 404.00,742.00 404.00,742.00
             404.00,742.00 392.81,723.00 392.81,723.00
             392.81,723.00 369.60,685.00 369.60,685.00
             369.60,685.00 347.26,645.00 347.26,645.00
             347.26,645.00 332.00,617.00 332.00,617.00 Z
           M 869.00,617.00
           C 869.00,617.00 860.14,631.00 860.14,631.00
             860.14,631.00 845.14,659.00 845.14,659.00
             845.14,659.00 815.32,710.00 815.32,710.00
             815.32,710.00 796.00,742.00 796.00,742.00
             796.00,742.00 797.00,743.00 797.00,743.00
             822.12,738.27 847.41,733.03 872.00,726.00
             872.00,726.00 889.00,721.14 889.00,721.14
             891.37,720.46 895.77,719.46 897.34,717.49
             898.99,715.36 897.94,712.36 897.34,710.00
             897.34,710.00 892.87,692.00 892.87,692.00
             892.87,692.00 878.33,642.00 878.33,642.00
             875.66,633.97 873.03,624.29 869.00,617.00 Z
           M 291.00,773.00
           C 289.27,782.64 287.05,804.33 287.00,814.00
             287.00,814.00 286.00,830.00 286.00,830.00
             285.92,881.36 292.17,951.22 338.00,983.56
             380.71,1013.70 442.57,995.62 485.00,973.74
             485.00,973.74 511.00,959.05 511.00,959.05
             511.00,959.05 545.00,936.37 545.00,936.37
             547.39,934.59 554.96,929.51 555.66,926.91
             556.75,922.89 546.80,915.60 543.91,912.83
             543.91,912.83 505.08,872.00 505.08,872.00
             505.08,872.00 467.61,828.00 467.61,828.00
             464.10,823.67 453.44,808.94 449.96,806.59
             446.58,804.31 438.30,803.89 434.00,803.27
             434.00,803.27 400.00,797.92 400.00,797.92
             400.00,797.92 327.00,782.13 327.00,782.13
             327.00,782.13 291.00,773.00 291.00,773.00 Z
           M 909.00,773.00
           C 909.00,773.00 873.00,782.13 873.00,782.13
             873.00,782.13 800.00,797.92 800.00,797.92
             800.00,797.92 766.00,803.27 766.00,803.27
             762.02,803.84 753.09,804.56 750.04,806.60
             746.74,808.80 734.94,824.77 731.55,829.00
             731.55,829.00 694.91,872.00 694.91,872.00
             694.91,872.00 673.09,895.00 673.09,895.00
             673.09,895.00 657.00,911.96 657.00,911.96
             654.01,914.82 643.17,922.58 644.34,926.91
             645.05,929.56 653.50,935.28 656.00,937.12
             656.00,937.12 692.00,960.85 692.00,960.85
             719.32,976.56 745.80,989.86 777.00,996.20
             784.18,997.66 802.16,1000.19 809.00,999.68
             829.67,998.13 844.45,995.95 862.00,983.56
             899.84,956.87 911.15,902.48 913.04,859.00
             913.04,859.00 914.00,846.00 914.00,846.00
             914.00,846.00 914.00,830.00 914.00,830.00
             914.00,830.00 913.00,811.00 913.00,811.00
             913.00,811.00 909.00,773.00 909.00,773.00 Z
           M 672.00,813.00
           C 672.00,813.00 636.00,814.00 636.00,814.00
             636.00,814.00 619.00,815.00 619.00,815.00
             619.00,815.00 579.00,815.00 579.00,815.00
             579.00,815.00 564.00,814.00 564.00,814.00
             564.00,814.00 528.00,813.00 528.00,813.00
             529.94,819.81 539.00,828.57 543.93,834.00
             543.93,834.00 580.00,872.00 580.00,872.00
             580.00,872.00 593.00,884.41 593.00,884.41
             594.84,885.92 597.50,888.36 600.00,888.38
             602.44,888.39 605.21,886.04 607.00,884.56
             607.00,884.56 620.00,872.00 620.00,872.00
             620.00,872.00 656.02,834.00 656.02,834.00
             660.95,828.71 670.09,819.71 672.00,813.00 Z" />
</svg>
