<?xml version="1.0" encoding="UTF-8" standalone="no"?>
<!DOCTYPE svg PUBLIC "-//W3C//DTD SVG 20010904//EN"
              "http://www.w3.org/TR/2001/REC-SVG-20010904/DTD/svg10.dtd">

<svg xmlns="http://www.w3.org/2000/svg"
     width="4.22222in" height="2.30556in"
     viewBox="0 0 304 166">
  <path id="Selection"
        fill="none" stroke="black" stroke-width="1"
        d="M 222.00,2.00
           C 222.00,2.00 220.66,32.00 220.66,32.00
             220.66,32.00 219.59,39.00 219.59,39.00
             219.59,39.00 216.83,76.00 216.83,76.00
             216.83,76.00 214.08,104.00 214.08,104.00
             214.08,104.00 211.67,130.00 211.67,130.00
             211.67,130.00 209.82,145.73 209.82,145.73
             209.82,145.73 202.00,149.86 202.00,149.86
             202.00,149.86 184.00,155.14 184.00,155.14
             184.00,155.14 151.00,163.39 151.00,163.39
             151.00,163.39 116.00,154.14 116.00,154.14
             116.00,154.14 101.00,149.86 101.00,149.86
             101.00,149.86 94.02,146.49 94.02,146.49
             94.02,146.49 92.72,139.00 92.72,139.00
             92.72,139.00 90.88,118.00 90.88,118.00
             90.88,118.00 89.44,99.00 89.44,99.00
             89.44,99.00 88.17,90.00 88.17,90.00
             88.17,90.00 84.26,42.00 84.26,42.00
             84.26,42.00 83.09,33.00 83.09,33.00
             83.09,33.00 81.50,11.00 81.50,11.00
             81.50,11.00 82.04,3.60 82.04,3.60
             82.04,3.60 90.00,2.00 90.00,2.00
             90.00,2.00 222.00,2.00 222.00,2.00 Z
           M 128.00,50.00
           C 128.00,50.00 187.00,50.00 187.00,50.00
             188.99,50.00 192.81,50.23 194.40,48.98
             196.30,47.48 198.14,34.19 195.40,32.02
             193.81,30.77 189.99,31.00 188.00,31.00
             188.00,31.00 116.00,31.00 116.00,31.00
             113.13,31.01 109.06,30.50 107.26,33.31
             105.72,35.92 107.01,41.82 107.26,45.00
             107.26,45.00 108.42,56.00 108.42,56.00
             108.42,56.00 109.91,74.00 109.91,74.00
             110.31,77.05 109.96,82.44 111.75,84.69
             113.92,87.41 117.88,86.99 121.00,87.00
             121.00,87.00 173.00,87.00 173.00,87.00
             172.94,90.37 172.34,104.54 170.98,106.78
             169.27,109.59 164.99,110.44 162.00,111.22
             152.08,114.12 151.63,113.77 142.00,111.22
             142.00,111.22 136.06,109.35 136.06,109.35
             129.85,106.27 133.04,101.06 130.68,97.31
             128.28,93.52 115.84,94.91 112.18,96.00
             112.18,96.00 112.18,104.00 112.18,104.00
             112.18,104.00 113.45,114.00 113.45,114.00
             113.47,116.68 113.26,120.23 114.98,122.49
             117.11,125.29 127.35,127.33 131.00,128.23
             137.92,129.94 145.83,133.35 153.00,132.91
             156.63,132.68 168.07,129.53 172.00,128.34
             176.00,127.13 186.53,125.42 188.44,121.72
             189.73,119.23 190.24,111.07 190.42,108.00
             190.42,108.00 192.66,83.00 192.66,83.00
             192.82,80.24 194.38,70.72 192.66,68.60
             191.51,66.62 187.17,67.00 185.00,67.00
             185.00,67.00 129.00,67.00 129.00,67.00
             129.00,67.00 128.00,50.00 128.00,50.00 Z" />
</svg>
